<?xml version="1.0" standalone="no"?>
<!DOCTYPE svg PUBLIC "-//W3C//DTD SVG 20010904//EN"
        "http://www.w3.org/TR/2001/REC-SVG-20010904/DTD/svg10.dtd">
<svg version="1.0" xmlns="http://www.w3.org/2000/svg"
     width="415.000000pt" height="96.000000pt" viewBox="0 0 415.000000 96.000000"
     preserveAspectRatio="xMidYMid meet">

    <g transform="translate(0.000000,96.000000) scale(0.100000,-0.100000)"
       fill="#000000" stroke="none">
        <path d="M40 693 c0 -272 15 -371 71 -493 l32 -71 56 3 c56 3 56 3 84 53 15
28 37 81 49 120 l21 69 17 -59 c9 -33 31 -88 48 -122 l32 -63 55 0 55 0 24 48
c64 126 86 268 86 560 l0 192 -55 0 -55 0 0 -227 c0 -126 -5 -256 -10 -290
-13 -77 -48 -193 -59 -193 -13 0 -59 109 -76 180 -11 44 -18 140 -22 298 l-6
232 -38 0 -37 0 -5 -242 c-4 -261 -15 -326 -71 -435 l-23 -46 -17 43 c-37 92
-47 172 -53 428 l-6 252 -48 0 -49 0 0 -237z"/>
        <path d="M775 905 l-25 -24 0 -356 c0 -342 1 -356 20 -375 19 -19 33 -20 215
-20 l195 0 0 30 0 30 -155 0 c-179 0 -178 0 -173 98 l3 57 163 3 162 2 0 30 0
30 -162 2 -163 3 0 162 c0 119 3 165 13 175 9 9 57 14 162 16 l150 3 0 80 0
79 -190 0 c-189 0 -191 0 -215 -25z"/>
        <path d="M1270 530 l0 -400 225 0 225 0 0 155 0 155 -50 0 -50 0 0 -109 c0
-60 -3 -116 -6 -125 -5 -13 -25 -16 -120 -16 l-114 0 0 370 0 370 -55 0 -55 0
0 -400z"/>
        <path d="M1827 918 c-33 -26 -37 -66 -37 -409 0 -326 1 -340 20 -359 19 -19
33 -20 230 -20 l210 0 0 30 0 30 -172 2 -172 3 -9 34 c-14 56 -5 507 11 523 9
9 44 13 113 13 88 0 102 -2 115 -19 11 -16 14 -62 14 -213 l0 -193 56 0 56 0
-4 268 c-2 147 -7 274 -12 283 -15 32 -54 39 -230 39 -122 0 -177 -4 -189 -12z"/>
        <path d="M2369 911 l-24 -19 -3 -361 c-3 -351 -2 -361 18 -381 19 -19 32 -20
210 -20 177 0 191 1 210 20 19 19 20 33 20 359 0 348 -4 392 -40 411 -10 6
-97 10 -193 10 -157 0 -177 -2 -198 -19z m314 -160 c15 -12 17 -44 17 -275 0
-190 -3 -265 -12 -274 -16 -16 -220 -16 -236 0 -13 13 -18 524 -4 544 13 20
35 23 128 21 60 -1 97 -7 107 -16z"/>
        <path d="M2890 530 l0 -400 50 0 50 0 0 262 c0 144 3 258 7 255 3 -4 38 -120
77 -259 l71 -253 46 -3 46 -3 62 223 c97 347 89 344 90 41 l1 -263 50 0 50 0
0 400 0 400 -49 0 c-29 0 -55 -6 -63 -14 -8 -8 -51 -150 -96 -317 -78 -288
-88 -318 -95 -308 -2 2 -40 141 -85 308 -45 167 -87 310 -93 318 -7 8 -33 13
-65 13 l-54 0 0 -400z"/>
        <path d="M3616 909 l-26 -20 0 -363 c0 -339 1 -364 18 -379 16 -15 46 -17 215
-17 l197 0 0 30 0 30 -153 0 c-106 0 -157 4 -165 12 -7 7 -12 40 -12 80 l0 68
165 0 165 0 0 30 0 30 -165 0 -165 0 0 158 c0 121 3 163 14 178 13 17 30 19
165 22 l151 3 0 80 0 79 -189 0 c-175 0 -190 -1 -215 -21z"/>
    </g>
</svg>
